<svg width="14" height="14" viewBox="0 0 14 14" fill="none" xmlns="http://www.w3.org/2000/svg">
<path d="M7 1.66671C8.59574 1.66671 9.9643 2.38584 10.8713 3.66671H8.33333V5.00004H13V0.333374H11.6667V2.51361C10.5166 1.12172 8.86948 0.333374 7 0.333374C3.3181 0.333374 0.333328 3.31814 0.333328 7.00004H1.66666C1.66666 4.05452 4.05448 1.66671 7 1.66671Z" fill="white"/>
<path d="M7 12.3334C5.40425 12.3334 4.03569 11.6142 3.1287 10.3334H5.66666V9.00004H0.999995V13.6667H2.33333V11.4865C3.4834 12.8784 5.13051 13.6667 7 13.6667C10.6819 13.6667 13.6667 10.6819 13.6667 7.00004H12.3333C12.3333 9.94556 9.94551 12.3334 7 12.3334Z" fill="white"/>
</svg>
