<svg width="32" height="32" viewBox="0 0 32 32" fill="none" xmlns="http://www.w3.org/2000/svg">
<path d="M28.7771 19.8108C28.2004 21.7444 27.1924 23.5219 25.829 25.0094C24.4656 26.4968 22.7823 27.6554 20.9061 28.3979C19.03 29.1403 17.0097 29.4473 14.9977 29.2956C12.9856 29.1439 11.0342 28.5376 9.29056 27.5222C7.54688 26.5069 6.05638 25.109 4.93138 23.434C3.80638 21.759 3.07622 19.8505 2.79591 17.8523C2.51561 15.8541 2.69247 13.8183 3.31317 11.8984C3.93388 9.97848 4.98223 8.22448 6.37924 6.76855L8.3352 8.64537C7.22221 9.80529 6.387 11.2027 5.89248 12.7323C5.39797 14.2619 5.25707 15.8837 5.48039 17.4757C5.7037 19.0676 6.28542 20.5881 7.1817 21.9226C8.07798 23.2571 9.26545 24.3708 10.6546 25.1797C12.0438 25.9886 13.5985 26.4717 15.2014 26.5925C16.8044 26.7134 18.4139 26.4688 19.9087 25.8773C21.4034 25.2858 22.7444 24.3627 23.8307 23.1777C24.9169 21.9927 25.72 20.5766 26.1794 19.0361L28.7771 19.8108Z" fill="#9A41FE"/>
</svg>
